G04*
G04 #@! TF.GenerationSoftware,Altium Limited,Altium Designer,24.2.2 (26)*
G04*
G04 Layer_Color=65535*
%FSLAX44Y44*%
%MOMM*%
G71*
G04*
G04 #@! TF.SameCoordinates,4FBEA47C-08EE-4C05-AA3B-087DA5EAA6FD*
G04*
G04*
G04 #@! TF.FilePolarity,Positive*
G04*
G01*
G75*
%ADD10C,0.2500*%
%ADD11C,0.6000*%
%ADD12C,0.2000*%
%ADD13C,0.2540*%
%ADD14C,0.1524*%
D10*
X369026Y225228D02*
G03*
X369026Y225228I-1250J0D01*
G01*
X265490Y53864D02*
G03*
X265490Y53864I-1250J0D01*
G01*
X12412Y65600D02*
G03*
X12412Y65600I-1250J0D01*
G01*
X307014Y265700D02*
G03*
X307014Y265700I-1250J0D01*
G01*
X233588Y201552D02*
G03*
X233588Y201552I-1250J0D01*
G01*
D11*
X257588Y188752D02*
G03*
X257588Y188752I-3000J0D01*
G01*
D12*
X388026Y207778D02*
X398876D01*
X336676D02*
X347526D01*
X336676Y136678D02*
Y207778D01*
X388026Y136678D02*
X398876D01*
X336676D02*
X347526D01*
X398876D02*
Y207778D01*
X386240Y11364D02*
Y33864D01*
Y73864D02*
Y96364D01*
X376240Y1364D02*
X386240Y11364D01*
X376240Y106364D02*
X386240Y96364D01*
X281240Y1364D02*
X376240D01*
X281240Y106364D02*
X376240D01*
X281240Y67614D02*
Y106364D01*
Y1364D02*
Y40114D01*
X291171Y116996D02*
X311793D01*
X291171Y134496D02*
X311793D01*
X235442Y108148D02*
Y114148D01*
X232442Y111148D02*
X238442D01*
X252442Y63148D02*
Y80648D01*
X218442Y63148D02*
Y80648D01*
X22476Y41788D02*
X37976D01*
X22476Y58288D02*
X37976D01*
X8152Y271284D02*
Y298184D01*
Y271284D02*
X163552D01*
Y298184D01*
X8152D02*
X163552D01*
X-64488Y75350D02*
X2912D01*
X184512D02*
X192012D01*
Y231500D02*
Y256850D01*
Y75350D02*
Y100700D01*
X-64488Y256850D02*
X2912D01*
X184512D02*
X192012D01*
X-64488Y75350D02*
Y256850D01*
X244588Y148752D02*
X276588D01*
X244588Y198752D02*
X276588D01*
Y148752D02*
Y198752D01*
X244588Y148752D02*
Y198752D01*
X85468Y25532D02*
X100968D01*
X85468Y42032D02*
X100968D01*
X123966Y25532D02*
X139466D01*
X123966Y42032D02*
X139466D01*
D13*
X399031Y247901D02*
X383797D01*
Y240283D01*
X386336Y237744D01*
X396492D01*
X399031Y240283D01*
Y247901D01*
X383797Y232666D02*
Y227587D01*
Y230126D01*
X399031D01*
X396492Y232666D01*
X261110Y3810D02*
X263650Y6349D01*
Y11428D01*
X261110Y13967D01*
X250954D01*
X248414Y11428D01*
Y6349D01*
X250954Y3810D01*
X248414Y-1268D02*
Y-6347D01*
Y-3808D01*
X263650D01*
X261110Y-1268D01*
X331214Y129793D02*
X333754Y132332D01*
Y137411D01*
X331214Y139950D01*
X321058D01*
X318519Y137411D01*
Y132332D01*
X321058Y129793D01*
X318519Y114558D02*
Y124715D01*
X328675Y114558D01*
X331214D01*
X333754Y117097D01*
Y122176D01*
X331214Y124715D01*
X233427Y124458D02*
X230888Y126997D01*
X225809D01*
X223270Y124458D01*
Y114302D01*
X225809Y111763D01*
X230888D01*
X233427Y114302D01*
X238505Y124458D02*
X241044Y126997D01*
X246123D01*
X248662Y124458D01*
Y121919D01*
X246123Y119380D01*
X243584D01*
X246123D01*
X248662Y116841D01*
Y114302D01*
X246123Y111763D01*
X241044D01*
X238505Y114302D01*
X16764Y66802D02*
Y82037D01*
X24381D01*
X26921Y79498D01*
Y74419D01*
X24381Y71880D01*
X16764D01*
X21842D02*
X26921Y66802D01*
X31999Y79498D02*
X34538Y82037D01*
X39617D01*
X42156Y79498D01*
Y76959D01*
X39617Y74419D01*
X37077D01*
X39617D01*
X42156Y71880D01*
Y69341D01*
X39617Y66802D01*
X34538D01*
X31999Y69341D01*
X8382Y308102D02*
Y323337D01*
X15999D01*
X18539Y320798D01*
Y315720D01*
X15999Y313180D01*
X8382D01*
X23617Y308102D02*
X28695D01*
X26156D01*
Y323337D01*
X23617Y320798D01*
X-64008Y270764D02*
Y285999D01*
X-58930Y280921D01*
X-53851Y285999D01*
Y270764D01*
X-48773Y285999D02*
Y270764D01*
X-41155D01*
X-38616Y273303D01*
Y283460D01*
X-41155Y285999D01*
X-48773D01*
X-33538Y270764D02*
X-28459D01*
X-30999D01*
Y285999D01*
X-33538Y283460D01*
X221488Y328417D02*
Y313182D01*
X231645D01*
X236723D02*
X241801D01*
X239262D01*
Y328417D01*
X236723Y325878D01*
X221488Y226817D02*
Y214121D01*
X224027Y211582D01*
X229105D01*
X231645Y214121D01*
Y226817D01*
X236723Y211582D02*
X241801D01*
X239262D01*
Y226817D01*
X236723Y224278D01*
X79756Y50546D02*
Y65781D01*
X87374D01*
X89913Y63242D01*
Y58163D01*
X87374Y55624D01*
X79756D01*
X84834D02*
X89913Y50546D01*
X105148D02*
X94991D01*
X105148Y60703D01*
Y63242D01*
X102609Y65781D01*
X97530D01*
X94991Y63242D01*
X118364Y50546D02*
Y65781D01*
X125982D01*
X128521Y63242D01*
Y58163D01*
X125982Y55624D01*
X118364D01*
X123442D02*
X128521Y50546D01*
X133599D02*
X138677D01*
X136138D01*
Y65781D01*
X133599Y63242D01*
D14*
X19381Y257577D02*
X22766Y259270D01*
X26152Y262656D01*
Y266041D01*
X24459Y267734D01*
X21074D01*
X19381Y266041D01*
Y264348D01*
X21074Y262656D01*
X26152D01*
X150552Y267734D02*
X147166D01*
X148859D01*
Y257577D01*
X150552Y259270D01*
M02*
