G04*
G04 #@! TF.GenerationSoftware,Altium Limited,Altium Designer,24.2.2 (26)*
G04*
G04 Layer_Physical_Order=2*
G04 Layer_Color=16711680*
%FSLAX44Y44*%
%MOMM*%
G71*
G04*
G04 #@! TF.SameCoordinates,4FBEA47C-08EE-4C05-AA3B-087DA5EAA6FD*
G04*
G04*
G04 #@! TF.FilePolarity,Positive*
G04*
G01*
G75*
%ADD13C,0.2540*%
%ADD30C,1.6000*%
G04:AMPARAMS|DCode=31|XSize=1.6mm|YSize=1.6mm|CornerRadius=0.4mm|HoleSize=0mm|Usage=FLASHONLY|Rotation=180.000|XOffset=0mm|YOffset=0mm|HoleType=Round|Shape=RoundedRectangle|*
%AMROUNDEDRECTD31*
21,1,1.6000,0.8000,0,0,180.0*
21,1,0.8000,1.6000,0,0,180.0*
1,1,0.8000,-0.4000,0.4000*
1,1,0.8000,0.4000,0.4000*
1,1,0.8000,0.4000,-0.4000*
1,1,0.8000,-0.4000,-0.4000*
%
%ADD31ROUNDEDRECTD31*%
%ADD32C,1.2700*%
D13*
X10414Y109728D02*
X23862Y96280D01*
X10414Y109728D02*
Y294132D01*
X18034Y301752D01*
X106934D01*
X123952Y284734D01*
X22352Y126224D02*
Y284734D01*
Y126224D02*
X36562Y112014D01*
X35052Y241046D02*
X39744Y236354D01*
X35052Y241046D02*
Y291592D01*
X40132Y296672D01*
X61214D01*
X73152Y284734D01*
X47752D02*
X133463Y199023D01*
D30*
X22352Y284734D02*
D03*
X47752D02*
D03*
X98552D02*
D03*
X123952D02*
D03*
X73152D02*
D03*
D31*
X149352D02*
D03*
D32*
X23862Y96280D02*
D03*
X36562Y112014D02*
D03*
X39744Y236354D02*
D03*
X133463Y199023D02*
D03*
M02*
