G04*
G04 #@! TF.GenerationSoftware,Altium Limited,Altium Designer,24.2.2 (26)*
G04*
G04 Layer_Color=8388736*
%FSLAX44Y44*%
%MOMM*%
G71*
G04*
G04 #@! TF.SameCoordinates,4FBEA47C-08EE-4C05-AA3B-087DA5EAA6FD*
G04*
G04*
G04 #@! TF.FilePolarity,Negative*
G04*
G01*
G75*
%ADD15R,3.3000X2.5000*%
%ADD16R,4.1000X2.0000*%
%ADD17R,0.8578X0.8621*%
%ADD18R,2.8000X2.0000*%
%ADD19R,1.0000X0.9000*%
%ADD20R,0.9000X0.9000*%
%ADD21R,1.5000X0.9000*%
%ADD22R,0.9000X1.5000*%
%ADD25R,3.2032X7.7032*%
G04:AMPARAMS|DCode=26|XSize=0.8532mm|YSize=1.8532mm|CornerRadius=0.1504mm|HoleSize=0mm|Usage=FLASHONLY|Rotation=90.000|XOffset=0mm|YOffset=0mm|HoleType=Round|Shape=RoundedRectangle|*
%AMROUNDEDRECTD26*
21,1,0.8532,1.5525,0,0,90.0*
21,1,0.5525,1.8532,0,0,90.0*
1,1,0.3007,0.7763,0.2763*
1,1,0.3007,0.7763,-0.2763*
1,1,0.3007,-0.7763,-0.2763*
1,1,0.3007,-0.7763,0.2763*
%
%ADD26ROUNDEDRECTD26*%
%ADD27C,1.8032*%
G04:AMPARAMS|DCode=28|XSize=1.8032mm|YSize=1.8032mm|CornerRadius=0.5016mm|HoleSize=0mm|Usage=FLASHONLY|Rotation=180.000|XOffset=0mm|YOffset=0mm|HoleType=Round|Shape=RoundedRectangle|*
%AMROUNDEDRECTD28*
21,1,1.8032,0.8000,0,0,180.0*
21,1,0.8000,1.8032,0,0,180.0*
1,1,1.0032,-0.4000,0.4000*
1,1,1.0032,0.4000,0.4000*
1,1,1.0032,0.4000,-0.4000*
1,1,1.0032,-0.4000,-0.4000*
%
%ADD28ROUNDEDRECTD28*%
%ADD29C,1.4732*%
D15*
X367776Y137728D02*
D03*
Y206728D02*
D03*
D16*
X377240Y53864D02*
D03*
X290240D02*
D03*
D17*
X295460Y125746D02*
D03*
X307504D02*
D03*
D18*
X235442Y94398D02*
D03*
Y49398D02*
D03*
D19*
X39226Y50038D02*
D03*
X21226D02*
D03*
X102218Y33782D02*
D03*
X84218D02*
D03*
X140716D02*
D03*
X122716D02*
D03*
D20*
X102362Y165100D02*
D03*
Y151100D02*
D03*
Y137100D02*
D03*
X88362Y165100D02*
D03*
Y151100D02*
D03*
Y137100D02*
D03*
X74362Y165100D02*
D03*
Y151100D02*
D03*
Y137100D02*
D03*
D21*
X188762Y223250D02*
D03*
Y210550D02*
D03*
Y197850D02*
D03*
Y185150D02*
D03*
Y172450D02*
D03*
Y159750D02*
D03*
Y147050D02*
D03*
Y134350D02*
D03*
Y121650D02*
D03*
Y108950D02*
D03*
D22*
X11162Y253600D02*
D03*
X23862D02*
D03*
X36562D02*
D03*
X49262D02*
D03*
X61962D02*
D03*
X74662D02*
D03*
X87362D02*
D03*
X100062D02*
D03*
X112762D02*
D03*
X125462D02*
D03*
X138162D02*
D03*
X150862D02*
D03*
X163562D02*
D03*
X176262D02*
D03*
Y78600D02*
D03*
X163562D02*
D03*
X150862D02*
D03*
X138162D02*
D03*
X125462D02*
D03*
X112762D02*
D03*
X100062D02*
D03*
X87362D02*
D03*
X74662D02*
D03*
X61962D02*
D03*
X49262D02*
D03*
X36562D02*
D03*
X23862D02*
D03*
X11162D02*
D03*
D25*
X236096Y265700D02*
D03*
X286096D02*
D03*
D26*
X288838Y154702D02*
D03*
Y167402D02*
D03*
Y180102D02*
D03*
Y192802D02*
D03*
X232338Y154702D02*
D03*
Y167402D02*
D03*
Y180102D02*
D03*
Y192802D02*
D03*
D27*
X22352Y284734D02*
D03*
X47752D02*
D03*
X98552D02*
D03*
X123952D02*
D03*
X73152D02*
D03*
D28*
X149352D02*
D03*
D29*
X23862Y96280D02*
D03*
X36562Y112014D02*
D03*
X39744Y236354D02*
D03*
X133463Y199023D02*
D03*
M02*
